<svg width="234" height="234" viewBox="0 0 234 234" fill="none" xmlns="http://www.w3.org/2000/svg">
<g clip-path="url(#clip0_9022_7629)">
<path d="M177.565 108.774C154.201 102.768 149.76 101.861 149.76 94.674C149.76 86.8422 157.329 84.0963 163.848 84.0963C173.638 84.0963 181.601 87.3675 182.245 98.5899H202.088C202.088 77.0643 184.215 68.1699 164.767 68.1699C154.261 68.1699 143.289 71.7277 136.532 79.0461C132.043 72.635 123.936 69.3519 114.684 69.3519H38.3235V164.862H58.8104V126.527H81.0046C79.3571 129.786 78.4139 133.427 78.4139 137.475C78.4139 155.096 91.7256 165.399 108.559 165.399C119.137 165.399 127.351 161.615 134.801 154.308C142.286 162.152 154.153 165.793 166.486 165.793C191.808 165.793 205.251 152.995 205.251 135.911C205.251 114.767 184.371 110.457 177.577 108.762L177.565 108.774ZM115.603 81.7563C120.176 81.7563 124.08 85.8035 124.08 90.6268C124.08 97.4199 119.782 100.548 114.553 103.938C111.031 99.6286 107.246 95.8559 107.246 89.9701C107.246 85.1469 111.162 81.7443 115.591 81.7443L115.603 81.7563ZM58.8224 110.612V86.5795H90.8541C90.5914 87.8689 90.4243 89.218 90.4243 90.6268C90.4243 98.7212 94.3402 104.332 99.2948 110.469C99.1874 110.517 99.1038 110.565 98.9963 110.612H58.8104H58.8224ZM109.347 150.142C102.303 150.142 96.0355 144.662 96.0355 137.88C96.0355 130.311 102.554 125.357 109.085 122.479L124.999 141.928C120.689 146.751 115.997 150.142 109.335 150.142H109.347ZM167.262 149.891C163.179 149.891 159.287 149.21 155.992 147.73C155.992 147.73 155.968 147.718 155.956 147.718C155.932 147.718 155.908 147.694 155.885 147.682C145.295 143.313 123.71 114.91 123.71 114.91C127.16 113.084 130.3 110.935 132.891 108.404C137.726 116.713 147.766 120.223 157.735 122.861C171.441 126.515 185.409 128.21 185.409 138.262C185.409 147.79 174.437 149.879 167.262 149.879V149.891Z" fill="black"/>
</g>
<defs>
<clipPath id="clip0_9022_7629">
<rect width="234" height="234" fill="white"/>
</clipPath>
</defs>
</svg>
